<svg id="Ebene_1" data-name="Ebene 1" xmlns="http://www.w3.org/2000/svg" viewBox="0 0 54 54"><defs><style>.cls-1{fill:#1b242a;}</style></defs><path class="cls-1" d="M36.36,33.37A8.68,8.68,0,0,0,34,27.46a8.66,8.66,0,0,0,2.26-5.83V20.15h0a.75.75,0,0,0-.74-.61H31a.74.74,0,0,0-.74.61l-.09,1.48a2.93,2.93,0,0,1-3,2.89v0H25.73a9.24,9.24,0,0,0-3,.5V12.17a.74.74,0,0,0-.75-.73h-4.5a.74.74,0,0,0-.75.73V39.42a.74.74,0,0,0,.75.73H22a.74.74,0,0,0,.75-.73V33.36h0a2.93,2.93,0,0,1,3-2.89h1.59a2.93,2.93,0,0,1,3,2.89v1.48h0v4.58a.74.74,0,0,0,.75.73h4.49a.74.74,0,0,0,.75-.73l.07-4.58V33.37"/><path class="cls-1" d="M40.59,12.54a.5.5,0,0,0-.68,0l-.18.18a.46.46,0,0,0,0,.67l1.1,1.08a.37.37,0,0,1,0,.53l-.14.14a.39.39,0,0,1-.54,0L39,14.06a1.4,1.4,0,0,1,0-2l.18-.18a1.47,1.47,0,0,1,2.06,0l1,1,.07.07a.37.37,0,0,1,0,.53l-.14.14a.39.39,0,0,1-.55,0l-1.08-1.1"/><path class="cls-1" d="M45.62,13.38a.45.45,0,0,0,0-.66l-.18-.18a.5.5,0,0,0-.68,0l-1.11,1.08a.38.38,0,0,1-.54,0L43,13.47A.37.37,0,0,1,43,13l1.11-1.08a1.48,1.48,0,0,1,2.06,0l.18.18a1.4,1.4,0,0,1,0,2l-1,1-.07.07a.4.4,0,0,1-.54,0L44.52,15a.37.37,0,0,1,0-.53l1.11-1.08"/><path class="cls-1" d="M39.72,17.46a.45.45,0,0,0,0,.66l.18.18a.49.49,0,0,0,.68,0l1.11-1.08a.38.38,0,0,1,.54,0l.14.14a.37.37,0,0,1,0,.52L41.27,19a1.48,1.48,0,0,1-2.06,0L39,18.8a1.4,1.4,0,0,1,0-2l1-1,.07-.07a.38.38,0,0,1,.54,0l.14.14a.37.37,0,0,1,0,.53l-1.11,1.08"/><path class="cls-1" d="M44.75,18.3a.5.5,0,0,0,.68,0l.18-.18a.46.46,0,0,0,0-.67L44.5,16.37a.37.37,0,0,1,0-.53l.14-.14a.4.4,0,0,1,.54,0l1.11,1.08a1.4,1.4,0,0,1,0,2l-.18.17a1.47,1.47,0,0,1-2.06,0l-1-1L43,17.86a.37.37,0,0,1,0-.53l.14-.14a.4.4,0,0,1,.55,0l1.1,1.12"/></svg>