<svg id="Ebene_1" data-name="Ebene 1" xmlns="http://www.w3.org/2000/svg" viewBox="0 0 54 54"><defs><style>.cls-1{fill:#0077b5;}</style></defs><path class="cls-1" d="M38.47,13.5H15.53a2,2,0,0,0-2,2v23a2,2,0,0,0,2,2H38.47a2,2,0,0,0,2-2V15.53a2,2,0,0,0-2-2Zm-16.92,23H17.5v-13h4.05ZM19.5,21.91a2.35,2.35,0,1,1,2.35-2.35h0a2.34,2.34,0,0,1-2.34,2.34Zm17,14.55h-4v-7.3s.08-2.39-2.05-2.39S28,28.61,28,29.85v6.61H24V23.53h3.84v1.91A4.18,4.18,0,0,1,31,23.36a5.07,5.07,0,0,1,3.33.56,4.17,4.17,0,0,1,2,3.27c.2,1.93.11,9.27.11,9.27Z"/></svg>