<svg id="Ebene_1" data-name="Ebene 1" xmlns="http://www.w3.org/2000/svg" viewBox="0 0 54 54"><defs><style>.cls-1{fill:#e52521;}.cls-2{fill:#fff;}</style></defs><path class="cls-1" d="M41.85,19.44a3.87,3.87,0,0,0-2.74-2.74C36.69,16.06,27,16.06,27,16.06s-9.69,0-12.11.64a3.87,3.87,0,0,0-2.74,2.74,39.82,39.82,0,0,0-.65,7.47,39.71,39.71,0,0,0,.65,7.46,3.87,3.87,0,0,0,2.74,2.74c2.42.65,12.11.65,12.11.65s9.69,0,12.11-.65a3.87,3.87,0,0,0,2.74-2.74,39.71,39.71,0,0,0,.65-7.46A39.82,39.82,0,0,0,41.85,19.44Z"/><polygon class="cls-2" points="23.75 31.78 32.19 26.91 23.75 22.03 23.75 31.78"/></svg>