<svg id="Layer_1" data-name="Layer 1" xmlns="http://www.w3.org/2000/svg" viewBox="0 0 128 128"><title>LOCATION PIN</title><path d="M85.945,41.926A21.945,21.945,0,1,0,64,63.87,21.97,21.97,0,0,0,85.945,41.926Zm-40.39,0A18.445,18.445,0,1,1,64,60.37,18.466,18.466,0,0,1,45.555,41.926Z"/><path d="M118.86,125.767l-10.006-36.4a1.75,1.75,0,0,0-1.687-1.286H87.114c9.666-11.562,18.831-27.454,18.831-46.157a41.945,41.945,0,1,0-83.89,0c0,18.7,9.165,34.6,18.831,46.157H20.833a1.75,1.75,0,0,0-1.687,1.286L9.14,125.767a1.77,1.77,0,0,0,1.688,2.214H117.173A1.77,1.77,0,0,0,118.86,125.767ZM64,3.48a38.488,38.488,0,0,1,38.445,38.445c0,33.557-32.374,58.545-38.445,62.934-6.071-4.389-38.445-29.377-38.445-62.934A38.488,38.488,0,0,1,64,3.48Zm-50.877,121,9.044-32.9H43.941a113.9,113.9,0,0,0,19.088,16.872,1.748,1.748,0,0,0,1.943,0A113.9,113.9,0,0,0,84.059,91.583h21.773l9.044,32.9Z"/></svg>